<svg width="2500" height="2500" viewBox="0 0 2500 2500" fill="none" xmlns="http://www.w3.org/2000/svg">
<g id="Group 1">
<path id="lodoBackgroundShadow" d="M2500 1249.98C2500 1940.36 1940.35 2500 1250 2500C559.644 2500 0 1940.36 0 1249.98C0 559.653 559.644 0 1250 0C1940.35 0 2500 559.653 2500 1249.98Z" fill="#231F20"/>
<path id="logoBackground" d="M2456.14 1249.98C2456.14 1916.15 1916.13 2456.14 1249.99 2456.14C583.847 2456.14 43.8306 1916.15 43.8306 1249.98C43.8306 583.864 583.856 43.856 1250 43.856C1916.14 43.856 2456.14 583.864 2456.14 1249.98Z" fill="#BDBCBC"/>
<path id="circleShadow" d="M279.932 642.492C279.932 643.492 146.11 663.847 146.246 664.483C146.898 667.805 139.314 1352.89 261.525 1318.42C341.992 1280.55 298.695 834.153 298.695 894.195C298.695 977.881 306.822 1115.14 338.932 1330.73C375.119 1573.56 359.864 1603.82 376.737 1656.12C337.483 1618 276.415 1600.85 276.415 1600.85L363.008 1893.53L426.78 1892.88C426.78 1892.88 427.695 1873.22 428.534 1872.29C430.254 1872.27 491.525 1876.82 533.619 1953.86C777.212 2399.69 1418.53 2228.25 1250.65 2237.92L1514.92 2206.11C740.949 2338.52 595.763 1981.66 556.847 1910.42C532.466 1874.69 462.373 1837.25 418.305 1858.57C418.305 1858.57 525.864 1862.86 521.085 1834.35C554.695 1866.99 437.508 1781.52 437.508 1781.52L443.407 1800.05C461.585 1801.89 453.398 1782.26 472.542 1779.06L448.78 1768.18C445.737 1764.45 461.983 1745.05 403.958 1355.64C372.076 1141.69 378.509 975.119 378.509 892.229C378.509 811.924 373.263 806.246 373.415 805.653L326.254 774.847L317.212 773.017C304.212 770.373 291.331 766.212 285.746 763.119C288.644 758.805 290.314 753.059 290.314 743.576C290.314 734.398 289.331 722.441 288.051 707C286.364 686.339 287.195 612.322 284.339 637.051C134.059 1941.29 342.085 491.068 316.534 518.932L331.153 502.373C401.941 420.661 649.229 229.831 1287.3 214.915C1962.05 199.102 1965.11 445.568 1967.42 449.169L2142.21 535.746C2139.92 532.042 1912.87 155.237 1227.64 171.28C581.898 186.398 390.212 407.593 318.051 490.881L303.78 507.085C274.119 539.441 240.068 539.737 240.068 587.407C240.068 612.864 211.534 646.771 213.271 667.822C296.576 814.153 267.822 741.822 279.932 642.492ZM2125.14 579.754C2110.41 586.076 2112.64 609.958 2115.7 642.992C2117.96 667.61 2120.56 695.517 2115.7 715L2132.55 719.246C2138.13 696.881 2135.36 667.398 2132.97 641.373C2131.46 624.83 2129.11 599.797 2132.64 595.356C2133.06 595.924 2137.92 781.737 2176.22 826.034C2237.11 896.525 2206.75 855.966 2206.75 978.805C2206.75 1039.36 2252.04 1109.93 2250.24 1134.64C2227.68 1106.08 2221.26 1032.59 2215.52 966.678C2208.8 889.924 2203.05 823.661 2175.76 801.644C2209.4 772.144 2092.5 617.576 2100.48 722.246C2105.97 758.856 2088.07 640.042 2062.07 599.593C1982.44 475.653 1817.45 330.839 1244.14 310.932C718.593 292.686 458.127 508.398 391.178 574.203L399.873 559.195L314.475 515.178L290.314 770.856L326.864 713.169C326.864 713.169 385.864 606.178 386.949 603.67C396.161 592.814 645.186 307.619 1243.53 328.398C1881.32 350.534 1997.76 531.712 2047.51 609.076C2071.46 646.381 2077.75 688.068 2083.33 724.847C2090.62 773.288 2097.58 819.025 2151.97 811.712C2156.97 811.059 2161.08 812.178 2164.9 815.271C2186.45 832.636 2192.41 901.551 2198.24 968.178C2205.86 1056.34 2213.17 1139.59 2253.67 1160L2264.96 1165.69L2266.17 1153.03C2267.69 1136.85 2302.62 755.763 2194.71 630.822C2152.22 581.627 2136.57 574.822 2125.14 579.754ZM2355.81 895.636C2344.89 844.965 2328.49 795.631 2306.92 748.5C2319.17 776.746 2338.75 827.093 2355.81 895.636ZM2306.92 748.5C2304.48 742.785 2301.93 737.112 2299.3 731.483C2302.1 737.178 2304.36 742.814 2306.92 748.5ZM2252.58 622.33C2395.16 759.822 2369.58 1114.59 2369.58 1114.59L2300.22 1034.01V1377.75L2252.2 1474.42C2166.81 1930.97 1964.09 2333.8 1169.12 2312.31C374.169 2290.83 251.475 1866.52 176.771 1463.69C102.076 1060.86 208.78 620.432 208.78 620.432C-25.983 1318.66 251.475 1845.03 251.475 1845.03C251.475 1845.03 384.839 2339.16 1206.48 2333.81C2028.08 2328.44 2156.16 1871.89 2156.16 1871.89L2171.09 1987.13C2171.09 1987.13 2361.94 1812.54 2420.61 1447.3C2450.35 1262.41 2335.44 702.22 2252.58 622.33ZM2299.3 731.483C2296.53 725.678 2294.84 722.483 2294.84 722.483C2296.4 725.5 2297.83 728.5 2299.3 731.483Z" fill="#231F20"/>
<g id="chrome">
<g id="Clip path group">
<mask id="mask0_2_53" style="mask-type:luminance" maskUnits="userSpaceOnUse" x="41" y="89" width="2423" height="2314">
<g id="b">
<path id="Vector" d="M2352.55 1062.37C2352.98 1066.61 2353.48 1070.61 2353.95 1074.88C2367.65 1211.39 2373.94 1174.86 2352.55 1062.37ZM310.917 489.583C310.917 489.583 419.557 389.389 497.127 315.572C497.131 315.572 393.682 373.562 310.917 489.583ZM282.006 1819.21C343.518 1943.29 404.045 2024.04 404.045 2024.04C404.045 2024.04 346.365 1937.04 282.006 1819.21ZM2297.04 626.673L2276.82 567.765L2457.36 631.945L2282.69 542.423L2460.08 437.155L2265.13 517.085L2296.33 322.144L2233.04 510.455L2187.16 497.497C2090.95 354.464 1958.78 282.883 1792.46 203.103C1483.3 54.7653 1071.25 94.1017 1071.25 94.1017C1071.25 94.1017 1557.71 100.292 1929.81 320.856C2006.67 366.408 2070.74 429.577 2123.93 500.965L2043.62 505.393L2135.66 517.136C2144.34 529.356 2152.72 541.787 2160.79 554.417L2053.93 616.148L2169.21 567.749C2181.06 586.938 2192.32 606.484 2202.98 626.359L2157.4 769.06L2211.27 642.056C2291.13 796.495 2333.19 960.563 2352.55 1062.37C2330.21 849.264 2291.21 697.357 2236.09 583.412L2240.12 573.951C2240.12 573.951 2441.83 837.597 2405.65 1270C2369.45 1702.4 2266 1855.32 2162.54 1960.78L2157.39 1908.04C2157.39 1908.04 2007.41 2356.28 1262.61 2345.72C517.806 2335.16 460.915 2092.63 460.915 2092.63L419.54 2071.49C419.54 2071.49 243.697 1934.44 135.077 1570.57C26.4491 1206.72 129.898 911.426 129.898 911.426C129.898 911.426 73.0112 1153.99 114.39 1401.82C135.828 1530.25 212.773 1692.54 282.001 1819.21C231.187 1716.75 179.668 1584.75 160.944 1444C119.544 1132.88 129.898 921.965 181.614 763.785C233.33 605.605 264.376 537.03 264.376 537.03C264.376 537.03 47.153 790.158 41.9781 1328.01C36.8031 1865.88 491.944 2234.98 693.654 2314.09C895.372 2393.18 1531.55 2498.62 1914.28 2229.72C2297.03 1960.79 2271.16 1892.26 2395.29 1644.38C2519.46 1396.55 2467.72 895.608 2297.04 626.673V626.673ZM2206.45 528.039C2206.04 527.351 2205.66 526.664 2205.24 526.009L2209.1 526.496L2206.45 528.039ZM2224.23 559.785C2222.05 555.663 2219.88 551.452 2217.65 547.422L2229.81 542.306L2224.23 559.785ZM404.045 537.034C435.061 484.299 595.397 389.384 595.397 389.384C595.397 389.384 507.46 442.136 409.207 558.141C310.917 674.137 445.415 547.59 626.447 426.297C807.461 305.029 1060.9 315.581 1060.9 315.581C1060.9 315.581 978.159 252.294 662.646 352.497L967.805 220.662C967.805 220.662 502.323 320.852 367.837 510.677C233.334 700.503 372.991 589.769 404.045 537.034V537.034ZM1960.96 520.361C2018.02 579.625 2059.12 631.945 2059.12 631.945C2059.12 631.945 2042.31 578.64 1960.96 520.361V520.361ZM191.972 1296.38C248.863 1855.33 486.794 2092.63 486.794 2092.63C486.794 2092.63 667.808 2271.91 1231.58 2298.26C1795.32 2324.63 1976.38 2103.17 1991.91 2066.25C2007.42 2029.34 1919.46 2087.33 1893.61 2076.78C1867.76 2066.25 1976.38 1871.13 1976.38 1871.13C1919.48 2082.06 2007.42 1839.5 2064.29 1865.88C2121.2 1892.22 1950.51 1960.78 2007.42 2013.52C2064.29 2066.25 2183.22 1691.86 2260.84 1523.11C2338.42 1354.38 2312.55 1180.36 2307.4 1069.62C2302.24 958.881 2276.36 911.426 2276.36 911.426L2260.85 1175.11C2260.85 1175.11 2271.21 1211.99 2188.42 1027.42L2121.2 848.148C2074.65 1670.77 1888.42 1981.9 1888.42 1981.9C1888.42 1981.9 1821.2 2187.53 1278.12 2192.81C735.058 2198.05 657.458 2055.68 657.458 2055.68C481.619 1823.67 378.17 1328 404.053 1001.09C429.903 674.146 404.053 584.481 636.784 484.295C869.531 384.122 1221.23 373.554 1221.23 373.554C1643.67 361.677 1856.04 445.156 1960.96 520.352C1947.44 506.276 1933.6 492.502 1919.47 479.041C1841.89 405.228 1122.95 252.286 745.399 399.932C367.837 547.581 341.975 689.947 367.837 1122.35C393.707 1554.76 528.181 1913.31 621.276 2050.43C714.37 2187.53 1045.4 2229.72 1045.4 2229.72C595.409 2219.16 543.693 1981.9 517.827 1939.67C491.961 1897.49 414.378 1813.11 398.866 1881.68C383.358 1950.23 244.292 1531.06 270.158 1509.96C296.008 1488.86 455.757 1723.51 455.757 1723.51C455.757 1723.51 398.866 1607.48 341.975 1280.55C285.079 953.631 372.995 790.163 316.104 779.611C259.213 769.06 386.855 1262.02 223.911 1283.95C177.483 1290.2 216.01 847.955 236.723 758.316C257.397 668.656 279.921 642.492 279.921 642.492C279.921 642.492 135.085 737.432 191.972 1296.38Z" fill="white"/>
</g>
</mask>
<g mask="url(#mask0_2_53)">
<g id="Group">
<path id="Vector_2" d="M310.917 489.583C310.917 489.583 419.557 389.389 497.127 315.572C497.131 315.572 393.682 373.562 310.917 489.583ZM282.006 1819.21C343.518 1943.29 404.045 2024.04 404.045 2024.04C404.045 2024.04 346.365 1937.04 282.006 1819.21ZM2297.04 626.673L2276.82 567.765L2457.36 631.945L2282.69 542.423L2460.08 437.155L2265.13 517.085L2296.33 322.144L2233.04 510.455L2187.16 497.497C2090.95 354.464 1958.78 282.883 1792.46 203.103C1483.3 54.7653 1071.25 94.1017 1071.25 94.1017C1071.25 94.1017 1557.71 100.292 1929.81 320.856C2006.67 366.408 2070.74 429.577 2123.93 500.965L2043.62 505.393L2135.66 517.136C2144.34 529.356 2152.72 541.787 2160.79 554.417L2053.93 616.148L2169.21 567.749C2181.06 586.938 2192.32 606.484 2202.98 626.359L2157.4 769.06L2211.27 642.056C2291.13 796.495 2333.19 960.563 2352.55 1062.37C2330.21 849.264 2291.21 697.357 2236.09 583.412L2240.12 573.951C2240.12 573.951 2441.83 837.597 2405.65 1270C2369.45 1702.4 2266 1855.32 2162.54 1960.78L2157.39 1908.04C2157.39 1908.04 2007.41 2356.28 1262.61 2345.72C517.806 2335.16 460.915 2092.63 460.915 2092.63L419.54 2071.49C419.54 2071.49 243.697 1934.44 135.077 1570.57C26.4491 1206.72 129.898 911.426 129.898 911.426C129.898 911.426 73.0112 1153.99 114.39 1401.82C135.828 1530.25 212.773 1692.54 282.001 1819.21C231.187 1716.75 179.668 1584.75 160.944 1444C119.544 1132.88 129.898 921.965 181.614 763.785C233.33 605.605 264.376 537.03 264.376 537.03C264.376 537.03 47.153 790.158 41.9781 1328.01C36.8031 1865.88 491.944 2234.98 693.654 2314.09C895.372 2393.18 1531.55 2498.62 1914.28 2229.72C2297.03 1960.79 2271.16 1892.26 2395.29 1644.38C2519.46 1396.55 2467.72 895.608 2297.04 626.673ZM2206.45 528.039C2206.04 527.351 2205.66 526.664 2205.24 526.009L2209.1 526.496L2206.45 528.039ZM2224.23 559.785C2222.05 555.663 2219.88 551.452 2217.65 547.422L2229.81 542.306L2224.23 559.785ZM404.045 537.034C435.061 484.299 595.397 389.384 595.397 389.384C595.397 389.384 507.46 442.136 409.207 558.141C310.917 674.137 445.415 547.59 626.447 426.297C807.461 305.029 1060.9 315.581 1060.9 315.581C1060.9 315.581 978.159 252.294 662.646 352.497L967.805 220.662C967.805 220.662 502.323 320.852 367.837 510.677C233.334 700.503 372.991 589.769 404.045 537.034ZM1960.96 520.361C2018.02 579.625 2059.12 631.945 2059.12 631.945C2059.12 631.945 2042.31 578.64 1960.96 520.361ZM191.972 1296.38C248.863 1855.33 486.794 2092.63 486.794 2092.63C486.794 2092.63 667.808 2271.91 1231.58 2298.26C1795.32 2324.63 1976.38 2103.17 1991.91 2066.25C2007.42 2029.34 1919.46 2087.33 1893.61 2076.78C1867.76 2066.25 1976.38 1871.13 1976.38 1871.13C1919.48 2082.06 2007.42 1839.5 2064.29 1865.88C2121.2 1892.22 1950.51 1960.78 2007.42 2013.52C2064.29 2066.25 2183.22 1691.86 2260.84 1523.11C2338.42 1354.38 2312.55 1180.36 2307.4 1069.62C2302.24 958.881 2276.36 911.426 2276.36 911.426L2260.85 1175.11C2260.85 1175.11 2271.21 1211.99 2188.42 1027.42L2121.2 848.148C2074.65 1670.77 1888.42 1981.9 1888.42 1981.9C1888.42 1981.9 1821.2 2187.53 1278.12 2192.81C735.058 2198.05 657.458 2055.68 657.458 2055.68C481.619 1823.67 378.17 1328 404.053 1001.09C429.903 674.146 404.053 584.481 636.784 484.295C869.531 384.122 1221.23 373.554 1221.23 373.554C1643.67 361.677 1856.04 445.156 1960.96 520.352C1947.44 506.276 1933.6 492.502 1919.47 479.041C1841.89 405.228 1122.95 252.286 745.399 399.932C367.837 547.581 341.975 689.947 367.837 1122.35C393.707 1554.76 528.181 1913.31 621.276 2050.43C714.37 2187.53 1045.4 2229.72 1045.4 2229.72C595.409 2219.16 543.693 1981.9 517.827 1939.67C491.961 1897.49 414.378 1813.11 398.866 1881.68C383.358 1950.23 244.292 1531.06 270.158 1509.96C296.008 1488.86 455.757 1723.51 455.757 1723.51C455.757 1723.51 398.866 1607.48 341.975 1280.55C285.079 953.631 372.987 790.163 316.092 779.611C259.196 769.06 386.855 1262.02 223.911 1283.95C177.483 1290.2 216.01 847.955 236.723 758.316C257.397 668.656 279.921 642.492 279.921 642.492C279.921 642.492 135.085 737.432 191.972 1296.38Z" fill="url(#paint0_linear_2_53)"/>
</g>
</g>
</g>
</g>
<path id="redBackground" d="M1326.79 2158.11C1327.67 2158.07 1456.41 2151.75 1568.69 2126.45C1666.27 2104.48 1752.62 2062.5 1753.48 2062.08L1753.8 2061.92L1754.14 2061.75C1754.63 2061.55 1802.74 2040.78 1832.33 2012.5C1862.33 1983.81 1875.97 1946.29 1876.1 1945.92C1876.71 1944.29 1929.24 1804.3 1968.96 1654.76C2005.52 1517.16 2030.59 1365.03 2030.86 1363.52C2031.25 1361.52 2061.53 1207.81 2070.04 1044.31C2077.19 906.89 2062.99 750.873 2062.82 749.305C2062.74 748.127 2055.42 655.737 2018.35 595.322C1985.03 541.042 1920.69 514.381 1920.04 514.11L1919.48 513.89L1918.94 513.602C1918.19 513.229 1843.5 475.805 1701.8 444.975C1588.78 420.39 1431.69 402.839 1301.62 400.305C1152.92 397.381 993.271 407.754 874.627 428.034C732.33 452.356 639.881 488.492 638.949 488.856L638.178 489.144L637.381 489.356C636.458 489.602 544.254 514.881 495.788 576.424C446.542 638.941 438.568 741.644 438.491 742.678L438.432 743.305C438.288 744.356 427.966 832.932 427.966 941.492C427.966 960.949 428.288 981.051 429.085 1001.42C434.636 1146.01 459.915 1306.26 460.161 1307.86C460.458 1309.45 494.703 1497.58 533.763 1656.14C562.695 1773.69 600.373 1877.68 600.754 1878.7L601 1879.45L601.195 1880.21C601.339 1880.74 614.178 1933.5 635.059 1970.32C653.246 2002.36 680.017 2021.19 680.297 2021.36L680.737 2021.66L681.169 2022.02C681.364 2022.16 699.585 2036.87 727.551 2052.2C759.754 2069.83 802.907 2088.75 804.737 2089.51C807.78 2090.7 902.907 2127.12 1028.31 2143.67C1159.28 2160.96 1325.12 2158.14 1326.79 2158.11Z" fill="url(#paint1_radial_2_53)" stroke="#6D0115" stroke-width="16.9492"/>
<path id="stripe" d="M758.449 2057.36C752.771 2054.75 749.678 2053.25 749.678 2053.25C749.356 2053.11 747.737 2052.41 745.119 2051.2L744.169 2045.57C721.712 1921.74 687.432 1695.49 676.22 1419.61C662.356 1095.19 662.89 697.576 664.203 504.983V491.051C667.991 489.78 671.915 488.492 675.966 487.195L676.025 501.153C674.695 692.102 674.059 1092.73 688.008 1419.13C699.407 1699.82 734.729 1928.9 757.059 2050.6L758.449 2057.36Z" fill="#6D0115"/>
<path id="stripes" d="M795.526 2073.24C790.983 2071.4 786.712 2069.63 782.746 2067.97L781.644 2059.28C765.288 1942.66 736.348 1704.92 722.593 1400.79C707.983 1077.48 710.619 671.102 712.907 486.356L712.932 475.975C716.771 474.873 720.704 473.771 724.712 472.661L724.737 484.119C722.449 667.593 719.737 1075.84 734.381 1400.28C748.449 1711.29 778.415 1952.68 794.492 2065.81L795.526 2073.24ZM1072.84 425.907C1075.81 784.042 1084.36 1817.14 1086.86 2116.42L1087.09 2141.69C1083.26 2141.29 1079.34 2140.85 1075.37 2140.39L1075.08 2116.37C1072.58 1817.32 1064.03 786.898 1061.06 427.475L1060.76 417C1064.73 416.661 1068.7 416.331 1072.67 416.025L1072.84 425.907ZM1226.37 421.254L1231.97 2124.93L1232.05 2148.83C1227.92 2148.88 1223.95 2148.92 1220.17 2148.93V2121.81C1218.98 1766.26 1215.57 725.492 1214.56 417.381L1214.5 409.364L1226.03 409.229L1226.37 421.254ZM1285.32 422.814L1276.87 2124.96L1276.86 2148.01C1272.76 2148.12 1268.81 2148.21 1264.87 2148.3L1265.04 2129.6C1266.53 1827.25 1271.78 768.5 1273.52 420.509L1273.24 409.271C1277.35 409.314 1281.44 409.356 1285.53 409.424L1285.32 422.814ZM1444.68 2118.84C1453.14 1978.77 1469.13 1681.83 1475.7 1345.83C1482.39 1003.39 1479.42 613.678 1477.34 430.653L1476.67 418.873C1481.45 419.297 1486.19 419.72 1490.91 420.161L1491.56 435.246C1493.6 620.297 1496.49 1006.42 1489.86 1346.09C1483.34 1679.3 1467.58 1974.14 1459.06 2115.86L1457.81 2136.11C1452.86 2136.7 1448.56 2137.27 1443.52 2137.81L1444.68 2118.84ZM1847.41 1980.01C1841.82 1987.58 1835.61 1994.68 1828.85 2001.22L1834.51 1971.17C1859.15 1843.51 1891.02 1646.03 1906.92 1414.15C1925.82 1138.49 1928.25 761.568 1927.86 547.39L1928.11 526.873C1932.7 529.415 1937.36 532.11 1942.01 535.008L1942.04 562.356C1942.31 779 1939.56 1145.37 1921.08 1415.11C1905.46 1642.75 1874.49 1837.4 1849.98 1965.7L1847.41 1980.01ZM1983.64 1517.58C1994.92 1428.88 2003.63 1339.88 2009.75 1250.68C2024.01 1040.45 2024.37 802.288 2022.56 650.712L2022.25 625.415C2028 638.381 2032.88 651.716 2036.85 665.331L2037.13 688.839C2038.4 840.602 2037.03 1057.93 2023.91 1251.62C2021.21 1291.4 2017.97 1331.13 2014.2 1370.82L2009.86 1413.42C1999.39 1466.04 1988.29 1518.53 1976.57 1570.88L1983.64 1517.58Z" fill="#6D0115"/>
<path id="stripesRight" d="M1797.24 2026.1C1792.75 2029.15 1787.38 2032.63 1781.32 2036.28L1785.63 2012.1C1809.25 1882.06 1846.02 1646.03 1860.47 1371.76C1876.32 1070.47 1876.38 712.322 1875.05 528.966L1874.5 503.009C1878.54 504.432 1883.31 506.187 1888.59 508.297L1889.25 532.483C1890.55 717.059 1890.4 1072.84 1874.62 1372.48C1860.57 1639.21 1825.44 1869.92 1801.72 2002.6L1797.23 2026.09L1797.24 2026.1ZM1623.29 2085.73C1634.46 1964.56 1654.94 1713.74 1664.78 1411.14C1675.82 1071.45 1675.86 668.898 1675.05 474.449L1674.63 446.788C1679.55 447.805 1684.42 448.822 1689.19 449.856L1689.24 476.627C1690.05 672.034 1689.96 1072.99 1678.95 1411.6C1669.18 1712.19 1648.91 1961.81 1637.68 2084.23L1636.24 2099.1C1631.56 2100.48 1626.87 2101.91 1621.66 2103.36L1623.29 2085.73ZM1574.35 2097.17C1586.61 1994.27 1606.7 1794.82 1615 1535.42C1627.08 1157.98 1625.59 682 1624.02 461.729L1623.74 437.229C1628.43 438.025 1633.07 438.831 1637.64 439.67L1638.17 465.28C1639.75 687.212 1641.17 1160.28 1629.13 1535.87C1620.96 1791.29 1601.37 1988.75 1589.01 2093.47L1586.72 2112.44C1582.02 2113.58 1576.98 2114.86 1572.02 2116L1574.35 2097.17ZM1534.65 2105.51C1544.25 1996.72 1560.81 1781.23 1568.58 1519.07C1579.45 1152.69 1576.64 688.746 1574.03 446.864L1573.75 429.576C1578.58 430.22 1583.35 430.898 1588.04 431.585L1588.3 454.712C1590.87 698.831 1593.5 1156.87 1582.75 1519.47C1575.09 1777.58 1558.93 1990.53 1549.28 2101.22L1547.52 2121.3C1542.64 2122.31 1538.04 2123.25 1532.99 2124.21L1534.65 2105.52V2105.51ZM1488.6 2114.76C1496.74 1987.68 1512.11 1722.16 1518.82 1437.36C1527.76 1058.76 1528.19 636.441 1527.8 438.746L1527.4 423.864C1532.19 424.407 1536.96 424.941 1541.7 425.492L1541.99 442.271C1542.37 641.5 1541.9 1061.19 1533.01 1437.68C1526.36 1719.08 1511.3 1981.69 1503.08 2110.74L1501.86 2129.78C1496.8 2130.63 1492.72 2131.34 1487.51 2132.13L1488.6 2114.75V2114.76ZM1439.89 432.127C1439.28 634.449 1437.25 1093.45 1430.7 1484.97C1427.08 1695.29 1421.01 1905.56 1412.51 2115.74L1411.42 2140.81C1407.42 2141.14 1403.4 2141.48 1399.4 2141.81L1400.57 2119.53C1405.53 1998.02 1414.3 1758.85 1418.9 1484.77C1425.51 1091.33 1427.53 629.712 1428.13 429.034L1428.21 415.144C1432.18 415.424 1436.16 415.687 1440.11 415.975L1439.89 432.127ZM1381.57 422.814C1383.21 601.373 1385.65 950.805 1383.47 1280.1C1381.1 1636.56 1373.39 1976.9 1369.73 2123.44L1369.29 2143.95C1365.27 2144.2 1361.27 2144.46 1357.28 2144.68L1357.82 2127.28C1361.47 1983.13 1369.29 1639.79 1371.67 1280C1373.85 952.644 1371.45 605.322 1369.81 425.907L1369.69 411.856C1373.62 412.034 1377.55 412.212 1381.47 412.407L1381.57 422.814ZM1335.25 422.034C1337.67 626.822 1341.04 993.356 1339.41 1339.03C1337.88 1660.64 1330.99 1968.67 1326.85 2129.6L1326.49 2146.25L1314.6 2146.76L1315.09 2127.27C1319.25 1965.82 1326.06 1659.14 1327.58 1338.98C1329.23 995.025 1325.91 630.441 1323.47 425.136L1323.19 410.187L1335.08 410.526L1335.25 422.034ZM918.203 2113.76C914.093 2112.75 910.017 2111.69 905.966 2110.6L905.263 2102.94C895.347 1996.02 875.415 1755.55 867.178 1473.28C856.644 1113.2 860.144 663.17 862.729 451.246L862.636 441.966C866.576 441.288 870.525 440.61 874.534 439.949L874.559 449.348C871.983 660.288 868.424 1111.91 878.975 1472.96C887.331 1758.86 907.686 2001.81 917.432 2106.26L918.203 2113.76ZM838.22 2089.46C833.966 2087.93 829.805 2086.43 825.754 2084.94L824.788 2076.09C806.737 1925.58 771.847 1600.45 760.788 1255.52C751.424 963.687 759.517 637.975 764.966 474.178L765.178 462.17C769.093 461.22 773.059 460.263 777.076 459.322L776.924 469.67C771.483 631.661 763.136 960.687 772.585 1255.17C783.797 1604.97 819.559 1934.38 837.314 2081.5L838.22 2089.46ZM502.322 1489.55C487.915 1419.38 479.492 1368.13 479.339 1367.23L477.314 1336.49C469.009 1231.49 461.534 1113.86 459.797 1013.57C457.737 894.975 458.61 776.398 459.975 687.712L459.483 676.407C463.034 662.395 467.426 648.61 472.636 635.127L471.619 698.178C470.347 785.551 469.619 899.449 471.619 1013.39C473.814 1140.28 485.212 1295 495.873 1416.63L502.322 1489.55ZM604.915 1864.02C596.737 1840.03 587.373 1811.75 577.661 1780.86L570.466 1739.36C552.076 1630.63 535.754 1515.13 531.136 1426.42C507.076 1131.5 505.856 791.076 507.373 609.864L507.67 576.525C511.407 572.432 515.28 568.559 519.22 564.941L519.288 596.475C517.602 773.636 518.271 1123.54 542.907 1425.64C548.288 1529.08 569.653 1669.08 591.61 1792.19L604.915 1864.02ZM662.915 1926.06C638.67 1806.52 608.754 1630.19 593.271 1428.6C569.246 1115.76 570.076 747.644 572.441 565.526L572.72 527.907C569.28 529.678 565.17 531.898 560.61 534.568L560.627 565.924C558.271 748.458 557.475 1116.55 581.5 1429.48C596.924 1630.3 626.636 1806.13 650.873 1926.03L665.958 1997.18C668.568 2000.12 671.331 2003.03 674.263 2005.82C676.381 2007.84 678.619 2009.85 680.915 2011.81L662.915 1926.06ZM876.441 2095.64C865.466 1997.03 846.076 1797.31 838.051 1556.28C824.831 1159.72 823.89 664.754 824.153 459.161L824.042 449.136C820.017 449.924 816.034 450.746 812.11 451.559L812.347 460.288C812.085 666.661 813.051 1160.68 826.246 1556.67C834.11 1792.35 852.805 1988.62 863.924 2089.76L864.847 2098.47C868.881 2099.78 872.983 2101.07 877.136 2102.32L876.441 2095.63V2095.64Z" fill="#6D0115"/>
<path id="stripesCenter" d="M625.61 504.873C621.254 506.542 617.246 508.119 613.585 509.593L613.364 527.322C609.407 712.407 604.22 1082.45 618.924 1325.6C639.788 1670.42 683.008 1914.83 704.364 2019.81L706.356 2030.14C710.89 2032.99 716.042 2036.03 720.297 2038.44L717.644 2025.75C697.051 1926.23 652.119 1678.58 630.72 1324.91C615.915 1080.14 621.314 706.364 625.263 523.042L625.61 504.415M925.339 432.144L913.407 433.856L913.602 443.771C911.559 636.534 908.941 1017.77 915.169 1351.54C921.102 1668.92 940.576 1958.32 951.551 2101.62L952.949 2121.54C956.975 2122.36 961 2123.16 965.034 2123.93L963.746 2106.35C952.864 1965.26 932.983 1672.64 926.966 1351.32C920.712 1017.17 923.356 635.407 925.407 442.992L925.339 432.144ZM975.449 425.644C971.415 426.127 967.398 426.61 963.398 427.11L963.364 436.771C960.314 593.949 955.78 919.144 962.398 1242.94C969.551 1611.16 988.822 1958.8 998.136 2111.51L999.195 2129.98C1003.26 2130.64 1007.29 2131.29 1011.31 2131.9L1009.97 2111.7C1000.69 1959.58 981.356 1611.47 974.203 1242.7C967.593 918.415 972.144 592.703 975.195 436.009L975.449 425.644ZM1023.73 420.398C1019.81 420.771 1015.86 421.187 1011.94 421.585L1011.86 431.364C1010.54 600.051 1008.72 954.686 1012.77 1298.76C1016.7 1632.42 1026.77 1962.3 1031.82 2113.36L1032.53 2135.02C1036.53 2135.57 1040.5 2136.11 1044.4 2136.63L1043.62 2113.3C1038.58 1962.41 1028.49 1632.4 1024.57 1298.62C1020.49 952.975 1022.36 596.644 1023.67 429.009L1023.73 420.398ZM1126.12 412.424C1122.01 412.661 1117.9 412.89 1113.8 413.144L1114.09 419.729C1116.14 728.958 1123.14 1783.25 1125.39 2124.96L1125.58 2145.41C1129.76 2145.77 1133.73 2146.1 1137.46 2146.39L1137.2 2125.73C1134.93 1784.68 1127.94 727.551 1125.89 418.949L1126.12 412.424ZM1175.81 410.212C1171.81 410.339 1167.8 410.492 1163.77 410.627L1164.07 422.025L1167.15 2120.25L1166.97 2148.41C1170.03 2148.6 1172.26 2148.71 1173.54 2148.78C1174.22 2148.78 1176.05 2148.84 1178.94 2148.85L1178.97 2119.48C1178.37 1801.94 1176.47 749.076 1175.86 422.025L1175.81 410.212ZM1663.34 2069.66C1680.4 1926.14 1711.37 1629.48 1724.47 1273.77C1734.24 1008.96 1726.48 653.712 1721.38 476.068L1720.47 456.949C1725.43 458.119 1730.25 459.297 1734.96 460.466L1735.67 480.127C1740.77 659.364 1748.33 1011.29 1738.63 1274.28C1725.53 1629.55 1694.64 1926.03 1677.53 2070.25L1675.49 2086.69C1670.55 2088.38 1665.58 2090.02 1660.6 2091.6L1663.34 2069.66Z" fill="#6D0115"/>
<path id="stripesLeft" d="M1722.52 2049.16C1736.31 1924.21 1760.53 1677.24 1775.1 1369.19C1789.12 1073.39 1788.39 691.492 1786.69 489.017L1786.4 474.288C1781.83 472.966 1777.07 471.619 1772.1 470.237L1772.53 487.703C1774.23 689.644 1774.98 1072.36 1760.97 1368.53C1746.21 1680.31 1721.59 1929.41 1707.92 2052.52L1705.28 2074.84C1709.52 2072.9 1714.53 2070.6 1720 2068.05L1722.52 2049.16ZM1765.92 2021.75C1782.62 1909.92 1805.33 1727.06 1818.24 1493.49C1837.42 1146.07 1840.87 702.856 1841.42 504.703L1841.14 491.551C1837.14 490.153 1832.47 488.585 1827.12 486.805L1827.28 500.11C1826.77 695.788 1823.41 1142.91 1804.09 1492.71C1790.69 1735.79 1766.61 1923.73 1749.81 2033.58L1746.54 2055.17C1751.74 2052.58 1756.9 2049.92 1762.03 2047.2L1765.92 2021.75ZM1889.88 1876.81C1889.88 1876.81 1902.59 1841.78 1918.28 1791.67L1924.23 1752.73C1943.55 1623.49 1963.94 1462.31 1977.45 1287.64C1995.44 1055.14 1991.5 771.932 1986.51 601.458L1985.42 569.28C1980.72 564.464 1975.77 559.893 1970.6 555.585L1971.75 581.771C1976.97 749.051 1981.98 1045.29 1963.31 1286.59C1947.63 1489.42 1922.64 1674.01 1900.86 1811.32L1889.88 1876.81Z" fill="#6D0115"/>
<g id="Group_2">
<g id="Group_3">
<path id="lettrs" d="M889.373 1368.53V1245.85H784.153L784.542 937.034H921.915L921.178 813.034H635.593L661.407 1762.11H786.898L784.153 1368.55L889.373 1368.53ZM970.788 813.025L986.661 1762.1H1116.24L1118.86 813.025H970.788ZM1803.05 1762.1L1829.66 932.593H1931.19L1930.41 813.025H1578.26V932.737H1680.62L1677.67 1762.1H1803.05ZM1314.3 1252.27L1315.72 929.898H1388.07C1420.86 1001.69 1441.94 1096.64 1458.47 1252.27H1314.3ZM1198.68 1762.08H1318.64L1319.98 1369.63H1463.72C1475.03 1438.89 1477.79 1652.73 1478.47 1762.08H1594.83C1605.81 1277.55 1571.69 1003.67 1477.47 813.017H1187.7L1198.68 1762.08Z" fill="#1A1A1A"/>
</g>
<g id="Group_4">
<path id="F" d="M904.732 1228.85H799.243L799.633 920.031H937.357L936.613 796.017H650.313L676.196 1745.1H801.994L799.243 1351.53H904.732V1228.85Z" fill="url(#paint2_radial_2_53)"/>
<path id="I" d="M1134.8 796.017H986.347L1002.26 1745.1H1132.17L1134.8 796.017Z" fill="url(#paint3_radial_2_53)"/>
<path id="T" d="M1695.01 1745.1H1820.7L1847.38 915.586H1949.15L1948.37 796.017H1595.34V915.726H1697.96L1695.01 1745.1Z" fill="url(#paint4_radial_2_53)"/>
<path id="A" d="M1330.72 1235.27L1332.13 912.894H1404.67C1437.55 984.694 1458.68 1079.64 1475.24 1235.27H1330.72ZM1214.81 1745.08H1335.09L1336.43 1352.63H1480.53C1491.85 1421.9 1494.63 1635.72 1495.31 1745.08H1611.97C1622.97 1260.55 1588.77 986.671 1494.29 796.017H1203.81L1214.81 1745.08Z" fill="url(#paint5_radial_2_53)"/>
</g>
</g>
</g>
<defs>
<linearGradient id="paint0_linear_2_53" x1="60.6985" y1="2377.24" x2="1237.44" y2="1252.36" gradientUnits="userSpaceOnUse">
<stop stop-color="#8C8C8C"/>
<stop offset="0.5" stop-color="#464646"/>
<stop offset="0.75" stop-color="white"/>
<stop offset="1" stop-color="white"/>
</linearGradient>
<radialGradient id="paint1_radial_2_53" cx="0" cy="0" r="1" gradientUnits="userSpaceOnUse" gradientTransform="translate(1250.01 1278.96) scale(830.508 887.731)">
<stop stop-color="#E60A47"/>
<stop offset="1" stop-color="#7C0626"/>
</radialGradient>
<radialGradient id="paint2_radial_2_53" cx="0" cy="0" r="1" gradientUnits="userSpaceOnUse" gradientTransform="translate(1299.81 1270.6) scale(904.836 785.1)">
<stop stop-color="#D3D1D2"/>
<stop offset="0.5" stop-color="#C9C7C8"/>
<stop offset="1" stop-color="#8D8B8C"/>
</radialGradient>
<radialGradient id="paint3_radial_2_53" cx="0" cy="0" r="1" gradientUnits="userSpaceOnUse" gradientTransform="translate(1299.81 1270.6) scale(904.836 785.1)">
<stop stop-color="#D3D1D2"/>
<stop offset="0.5" stop-color="#C9C7C8"/>
<stop offset="1" stop-color="#8D8B8C"/>
</radialGradient>
<radialGradient id="paint4_radial_2_53" cx="0" cy="0" r="1" gradientUnits="userSpaceOnUse" gradientTransform="translate(1299.81 1270.6) scale(904.836 785.1)">
<stop stop-color="#D3D1D2"/>
<stop offset="0.5" stop-color="#C9C7C8"/>
<stop offset="1" stop-color="#8D8B8C"/>
</radialGradient>
<radialGradient id="paint5_radial_2_53" cx="0" cy="0" r="1" gradientUnits="userSpaceOnUse" gradientTransform="translate(1299.81 1270.59) scale(904.803 785.071)">
<stop stop-color="#D3D1D2"/>
<stop offset="0.5" stop-color="#C9C7C8"/>
<stop offset="1" stop-color="#8D8B8C"/>
</radialGradient>
</defs>
</svg>
