<svg  viewBox="0 0 3457 3256" fill="none" xmlns="http://www.w3.org/2000/svg">
<g id="Frame 1">
<g id="Group 2">
<path id="logoBackgroundShadow" class="logoBackgroundShadow" d="M2979 1627.98C2979 2318.36 2419.35 2878 1729 2878C1038.64 2878 479 2318.36 479 1627.98C479 937.653 1038.64 378 1729 378C2419.35 378 2979 937.653 2979 1627.98Z" fill="#231F20"/>
<path id="logoBackground" class="logoBackground" d="M2935.14 1627.98C2935.14 2294.15 2395.13 2834.14 1728.99 2834.14C1062.85 2834.14 522.83 2294.15 522.83 1627.98C522.83 961.864 1062.86 421.856 1729 421.856C2395.14 421.856 2935.14 961.864 2935.14 1627.98Z" fill="#BDBCBC"/>
<path id="circleShadow" class="circleShadow" d="M758.932 1020.49C758.932 1021.49 625.11 1041.85 625.245 1042.48C625.898 1045.81 618.313 1730.89 740.525 1696.42C820.991 1658.55 777.694 1212.15 777.694 1272.19C777.694 1355.88 785.822 1493.14 817.932 1708.73C854.118 1951.56 838.864 1981.82 855.737 2034.12C816.483 1996 755.415 1978.85 755.415 1978.85L842.008 2271.53L905.779 2270.88C905.779 2270.88 906.694 2251.22 907.533 2250.29C909.254 2250.27 970.525 2254.82 1012.62 2331.86C1256.21 2777.69 1897.53 2606.25 1729.65 2615.92L1993.91 2584.11C1219.95 2716.52 1074.76 2359.66 1035.85 2288.42C1011.47 2252.69 941.372 2215.25 897.305 2236.57C897.305 2236.57 1004.86 2240.86 1000.08 2212.35C1033.69 2244.99 916.508 2159.52 916.508 2159.52L922.406 2178.05C940.584 2179.89 932.398 2160.26 951.542 2157.06L927.779 2146.18C924.737 2142.45 940.983 2123.05 882.957 1733.64C851.076 1519.69 857.508 1353.12 857.508 1270.23C857.508 1189.92 852.262 1184.25 852.415 1183.65L805.254 1152.85L796.211 1151.02C783.211 1148.37 770.33 1144.21 764.745 1141.12C767.644 1136.81 769.313 1131.06 769.313 1121.58C769.313 1112.4 768.33 1100.44 767.05 1085C765.364 1064.34 766.194 990.322 763.338 1015.05C613.059 2319.29 821.084 869.068 795.533 896.932L810.152 880.373C880.94 798.661 1128.23 607.831 1766.3 592.915C2441.05 577.102 2444.11 823.568 2446.42 827.169L2621.21 913.746C2618.91 910.042 2391.87 533.237 1706.63 549.28C1060.9 564.398 869.211 785.593 797.05 868.881L782.779 885.085C753.118 917.441 719.067 917.737 719.067 965.407C719.067 990.864 690.533 1024.77 692.271 1045.82C775.576 1192.15 746.822 1119.82 758.932 1020.49ZM2604.14 957.754C2589.41 964.076 2591.64 987.958 2594.7 1020.99C2596.96 1045.61 2599.56 1073.52 2594.7 1093L2611.55 1097.25C2617.13 1074.88 2614.36 1045.4 2611.97 1019.37C2610.46 1002.83 2608.11 977.797 2611.64 973.356C2612.06 973.924 2616.92 1159.74 2655.22 1204.03C2716.11 1274.53 2685.75 1233.97 2685.75 1356.81C2685.75 1417.36 2731.04 1487.93 2729.24 1512.64C2706.68 1484.08 2700.26 1410.59 2694.52 1344.68C2687.8 1267.92 2682.05 1201.66 2654.76 1179.64C2688.4 1150.14 2571.5 995.576 2579.48 1100.25C2584.97 1136.86 2567.07 1018.04 2541.07 977.593C2461.44 853.653 2296.45 708.839 1723.14 688.932C1197.59 670.686 937.127 886.398 870.178 952.203L878.872 937.195L793.474 893.178L769.313 1148.86L805.864 1091.17C805.864 1091.17 864.864 984.178 865.949 981.67C875.161 970.814 1124.19 685.619 1722.52 706.398C2360.32 728.534 2476.76 909.712 2526.51 987.076C2550.46 1024.38 2556.75 1066.07 2562.33 1102.85C2569.62 1151.29 2576.58 1197.03 2630.97 1189.71C2635.97 1189.06 2640.08 1190.18 2643.9 1193.27C2665.45 1210.64 2671.41 1279.55 2677.24 1346.18C2684.86 1434.34 2692.17 1517.59 2732.67 1538L2743.96 1543.69L2745.17 1531.03C2746.69 1514.85 2781.62 1133.76 2673.71 1008.82C2631.22 959.627 2615.57 952.822 2604.14 957.754ZM2834.81 1273.64C2823.89 1222.97 2807.49 1173.63 2785.91 1126.5C2798.17 1154.75 2817.75 1205.09 2834.81 1273.64ZM2785.92 1126.5C2783.48 1120.79 2780.93 1115.11 2778.3 1109.48C2781.1 1115.18 2783.36 1120.81 2785.92 1126.5ZM2731.58 1000.33C2874.16 1137.82 2848.58 1492.59 2848.58 1492.59L2779.22 1412.01V1755.75L2731.2 1852.42C2645.81 2308.97 2443.09 2711.8 1648.12 2690.31C853.169 2668.83 730.474 2244.52 655.771 1841.69C581.076 1438.86 687.779 998.432 687.779 998.432C453.016 1696.66 730.474 2223.03 730.474 2223.03C730.474 2223.03 863.838 2717.16 1685.48 2711.81C2507.08 2706.44 2635.16 2249.89 2635.16 2249.89L2650.09 2365.13C2650.09 2365.13 2840.94 2190.54 2899.61 1825.3C2929.35 1640.41 2814.44 1080.22 2731.58 1000.33ZM2778.3 1109.48C2775.53 1103.68 2773.84 1100.48 2773.84 1100.48C2775.4 1103.5 2776.83 1106.5 2778.3 1109.48Z" fill="#231F20"/>
<g id="chrome" class="chrome">
<g id="Clip path group">
<mask id="mask0_5_86" style="mask-type:luminance" maskUnits="userSpaceOnUse" x="520" y="467" width="2423" height="2314">
<g id="b">
<path id="Vector" d="M2831.55 1440.37C2831.98 1444.61 2832.48 1448.61 2832.95 1452.88C2846.65 1589.39 2852.94 1552.86 2831.55 1440.37ZM789.917 867.583C789.917 867.583 898.557 767.389 976.127 693.572C976.131 693.572 872.683 751.562 789.917 867.583ZM761.006 2197.21C822.518 2321.29 883.045 2402.04 883.045 2402.04C883.045 2402.04 825.366 2315.04 761.006 2197.21ZM2776.04 1004.67L2755.82 945.765L2936.36 1009.94L2761.69 920.423L2939.08 815.155L2744.13 895.085L2775.33 700.144L2712.04 888.455L2666.16 875.497C2569.96 732.464 2437.78 660.883 2271.46 581.103C1962.3 432.765 1550.25 472.102 1550.25 472.102C1550.25 472.102 2036.71 478.292 2408.81 698.856C2485.67 744.408 2549.74 807.577 2602.93 878.965L2522.62 883.393L2614.66 895.136C2623.34 907.356 2631.72 919.787 2639.79 932.417L2532.93 994.148L2648.21 945.749C2660.06 964.938 2671.32 984.484 2681.98 1004.36L2636.4 1147.06L2690.27 1020.06C2770.13 1174.5 2812.19 1338.56 2831.55 1440.37C2809.21 1227.26 2770.21 1075.36 2715.09 961.412L2719.12 951.951C2719.12 951.951 2920.83 1215.6 2884.65 1648C2848.45 2080.4 2745 2233.32 2641.54 2338.78L2636.39 2286.04C2636.39 2286.04 2486.41 2734.28 1741.61 2723.72C996.806 2713.16 939.915 2470.63 939.915 2470.63L898.541 2449.49C898.541 2449.49 722.697 2312.44 614.077 1948.57C505.449 1584.72 608.898 1289.43 608.898 1289.43C608.898 1289.43 552.011 1531.99 593.39 1779.82C614.828 1908.25 691.773 2070.54 761.002 2197.21C710.187 2094.75 658.668 1962.75 639.944 1822C598.544 1510.88 608.898 1299.96 660.614 1141.78C712.33 983.605 743.376 915.03 743.376 915.03C743.376 915.03 526.153 1168.16 520.978 1706.01C515.803 2243.88 970.944 2612.98 1172.65 2692.09C1374.37 2771.18 2010.55 2876.62 2393.28 2607.72C2776.04 2338.79 2750.16 2270.26 2874.29 2022.38C2998.46 1774.55 2946.72 1273.61 2776.04 1004.67V1004.67ZM2685.45 906.039C2685.04 905.351 2684.66 904.664 2684.24 904.009L2688.1 904.496L2685.45 906.039ZM2703.23 937.785C2701.05 933.663 2698.88 929.452 2696.65 925.422L2708.81 920.306L2703.23 937.785ZM883.045 915.034C914.061 862.299 1074.4 767.384 1074.4 767.384C1074.4 767.384 986.46 820.136 888.208 936.141C789.917 1052.14 924.416 925.59 1105.45 804.297C1286.46 683.029 1539.9 693.581 1539.9 693.581C1539.9 693.581 1457.16 630.294 1141.65 730.497L1446.81 598.662C1446.81 598.662 981.323 698.852 846.837 888.677C712.334 1078.5 851.991 967.769 883.045 915.034V915.034ZM2439.96 898.361C2497.02 957.625 2538.13 1009.94 2538.13 1009.94C2538.13 1009.94 2521.31 956.64 2439.96 898.361V898.361ZM670.973 1674.38C727.863 2233.33 965.794 2470.63 965.794 2470.63C965.794 2470.63 1146.81 2649.91 1710.58 2676.26C2274.32 2702.63 2455.38 2481.17 2470.91 2444.25C2486.42 2407.34 2398.46 2465.33 2372.61 2454.78C2346.76 2444.25 2455.38 2249.13 2455.38 2249.13C2398.48 2460.06 2486.42 2217.5 2543.29 2243.88C2600.2 2270.22 2429.51 2338.78 2486.42 2391.52C2543.29 2444.25 2662.22 2069.86 2739.84 1901.11C2817.42 1732.38 2791.55 1558.36 2786.4 1447.62C2781.24 1336.88 2755.36 1289.43 2755.36 1289.43L2739.85 1553.11C2739.85 1553.11 2750.21 1589.99 2667.42 1405.42L2600.2 1226.15C2553.65 2048.77 2367.42 2359.9 2367.42 2359.9C2367.42 2359.9 2300.2 2565.53 1757.12 2570.81C1214.06 2576.05 1136.46 2433.68 1136.46 2433.68C960.619 2201.67 857.17 1706 883.054 1379.09C908.903 1052.15 883.053 962.481 1115.78 862.295C1348.53 762.122 1700.23 751.554 1700.23 751.554C2122.67 739.677 2335.04 823.156 2439.96 898.352C2426.44 884.276 2412.6 870.502 2398.47 857.041C2320.89 783.228 1601.95 630.286 1224.4 777.932C846.837 925.581 820.975 1067.95 846.837 1500.35C872.708 1932.76 1007.18 2291.31 1100.28 2428.43C1193.37 2565.53 1524.4 2607.72 1524.4 2607.72C1074.41 2597.16 1022.69 2359.9 996.827 2317.67C970.961 2275.49 893.378 2191.11 877.866 2259.68C862.358 2328.23 723.292 1909.06 749.159 1887.96C775.008 1866.86 934.757 2101.51 934.757 2101.51C934.757 2101.51 877.866 1985.48 820.975 1658.55C764.08 1331.63 851.995 1168.16 795.104 1157.61C738.213 1147.06 865.855 1640.02 702.911 1661.95C656.484 1668.2 695.011 1225.96 715.723 1136.32C736.398 1046.66 758.922 1020.49 758.922 1020.49C758.922 1020.49 614.086 1115.43 670.973 1674.38Z" fill="white"/>
</g>
</mask>
<g mask="url(#mask0_5_86)">
<g id="Group">
<g id="Vector_2">
<path d="M789.917 867.583C789.917 867.583 898.557 767.389 976.127 693.572C976.131 693.572 872.683 751.562 789.917 867.583ZM761.006 2197.21C822.518 2321.29 883.045 2402.04 883.045 2402.04C883.045 2402.04 825.366 2315.04 761.006 2197.21ZM2685.45 906.039C2685.04 905.351 2684.66 904.664 2684.24 904.009L2688.1 904.496L2685.45 906.039ZM2703.23 937.785C2701.05 933.663 2698.88 929.452 2696.65 925.422L2705.47 921.71L2708.81 920.306L2707.57 924.179L2703.23 937.785ZM883.045 915.034C914.061 862.299 1074.4 767.385 1074.4 767.385C1074.4 767.385 986.46 820.136 888.208 936.141C789.917 1052.14 924.415 925.59 1105.45 804.297C1286.46 683.029 1539.9 693.581 1539.9 693.581C1539.9 693.581 1457.16 630.294 1141.65 730.497L1446.81 598.662C1446.81 598.662 981.323 698.852 846.837 888.677C712.334 1078.5 851.991 967.769 883.045 915.034ZM2439.96 898.361C2497.02 957.625 2538.13 1009.94 2538.13 1009.94C2538.13 1009.94 2521.31 956.64 2439.96 898.361ZM670.973 1674.38C727.863 2233.33 965.794 2470.63 965.794 2470.63C965.794 2470.63 1146.81 2649.91 1710.58 2676.26C2274.32 2702.63 2455.38 2481.17 2470.91 2444.25C2486.42 2407.34 2398.46 2465.33 2372.61 2454.78C2346.76 2444.25 2455.39 2249.13 2455.39 2249.13C2398.48 2460.06 2486.42 2217.5 2543.29 2243.88C2600.2 2270.22 2429.51 2338.78 2486.42 2391.52C2543.29 2444.25 2662.22 2069.86 2739.84 1901.11C2817.42 1732.38 2791.55 1558.36 2786.4 1447.62C2781.24 1336.88 2755.36 1289.43 2755.36 1289.43L2739.85 1553.11C2739.85 1553.11 2750.21 1589.99 2667.42 1405.42L2600.2 1226.15C2553.65 2048.77 2367.42 2359.9 2367.42 2359.9C2367.42 2359.9 2300.2 2565.53 1757.12 2570.81C1214.06 2576.05 1136.46 2433.68 1136.46 2433.68C960.619 2201.67 857.17 1706 883.054 1379.09C908.903 1052.15 883.053 962.481 1115.78 862.295C1348.53 762.122 1700.23 751.554 1700.23 751.554C2122.67 739.677 2335.04 823.156 2439.96 898.352C2426.44 884.276 2412.6 870.502 2398.47 857.041C2320.89 783.228 1601.95 630.286 1224.4 777.932C846.837 925.581 820.975 1067.95 846.837 1500.35C872.708 1932.76 1007.18 2291.31 1100.28 2428.43C1193.37 2565.53 1524.4 2607.72 1524.4 2607.72C1074.41 2597.16 1022.69 2359.9 996.827 2317.67C970.961 2275.49 893.378 2191.11 877.866 2259.68C862.358 2328.23 723.292 1909.06 749.159 1887.96C775.008 1866.86 934.757 2101.51 934.757 2101.51C934.757 2101.51 877.866 1985.48 820.975 1658.55C764.08 1331.63 851.987 1168.16 795.092 1157.61C738.197 1147.06 865.855 1640.02 702.911 1661.95C656.484 1668.2 695.011 1225.96 715.723 1136.32C736.398 1046.66 758.922 1020.49 758.922 1020.49C758.922 1020.49 614.086 1115.43 670.973 1674.38Z" fill="url(#paint0_linear_5_86)"/>
<path fill-rule="evenodd" clip-rule="evenodd" d="M2707.57 924.179L2776.04 1004.67C2946.72 1273.61 2998.46 1774.55 2874.29 2022.38C2750.16 2270.26 2776.04 2338.79 2393.28 2607.72C2010.55 2876.62 1374.37 2771.18 1172.65 2692.09C970.944 2612.98 515.803 2243.88 520.978 1706.01C526.153 1168.16 743.376 915.03 743.376 915.03C743.376 915.03 712.33 983.605 660.614 1141.78C608.898 1299.96 598.544 1510.88 639.944 1822C658.668 1962.75 710.187 2094.75 761.002 2197.21C691.773 2070.54 614.828 1908.25 593.39 1779.82C552.011 1531.99 608.898 1289.43 608.898 1289.43C608.898 1289.43 505.449 1584.72 614.077 1948.57C722.697 2312.44 898.541 2449.49 898.541 2449.49L939.915 2470.63C939.915 2470.63 996.806 2713.16 1741.61 2723.72C2486.41 2734.28 2636.39 2286.04 2636.39 2286.04L2641.54 2338.78C2745 2233.32 2848.45 2080.4 2884.65 1648C2920.83 1215.6 2719.12 951.951 2719.12 951.951L2715.09 961.412C2770.21 1075.36 2809.21 1227.26 2831.55 1440.37C2812.19 1338.56 2761.84 1158.8 2681.98 1004.36C2671.32 984.484 2651.64 951.607 2639.79 932.417C2631.72 919.787 2611.6 891.186 2602.93 878.965C2549.74 807.577 2485.67 744.408 2408.81 698.856C2036.71 478.292 1550.25 472.102 1550.25 472.102C1550.25 472.102 1962.3 432.765 2271.46 581.103C2437.78 660.883 2569.95 732.464 2666.16 875.497L2705.47 921.71L2696.65 925.422C2698.88 929.452 2701.05 933.663 2703.23 937.785L2707.57 924.179ZM2684.24 904.009C2684.66 904.664 2685.04 905.351 2685.45 906.039L2688.1 904.496L2684.24 904.009Z" fill="url(#paint1_linear_5_86)"/>
</g>
</g>
</g>
</g>
</g>
<path id="redBackground" class="redBackground" d="M1805.79 2536.11C1806.67 2536.07 1935.41 2529.75 2047.69 2504.45C2145.27 2482.48 2231.62 2440.5 2232.48 2440.08L2232.8 2439.92L2233.14 2439.75C2233.63 2439.55 2281.74 2418.78 2311.33 2390.5C2341.33 2361.81 2354.97 2324.29 2355.1 2323.92C2355.71 2322.29 2408.24 2182.3 2447.96 2032.76C2484.52 1895.16 2509.59 1743.03 2509.86 1741.52C2510.25 1739.52 2540.53 1585.81 2549.04 1422.31C2556.19 1284.89 2541.99 1128.87 2541.82 1127.31C2541.74 1126.13 2534.42 1033.74 2497.35 973.322C2464.03 919.042 2399.69 892.381 2399.04 892.11L2398.48 891.89L2397.94 891.602C2397.19 891.229 2322.5 853.805 2180.8 822.975C2067.78 798.39 1910.69 780.839 1780.62 778.305C1631.91 775.381 1472.27 785.754 1353.63 806.034C1211.33 830.356 1118.88 866.492 1117.95 866.856L1117.18 867.144L1116.38 867.356C1115.46 867.602 1023.25 892.881 974.788 954.424C925.542 1016.94 917.568 1119.64 917.491 1120.68L917.432 1121.31C917.288 1122.36 906.966 1210.93 906.966 1319.49C906.966 1338.95 907.288 1359.05 908.084 1379.42C913.635 1524.01 938.915 1684.26 939.161 1685.86C939.457 1687.45 973.703 1875.58 1012.76 2034.14C1041.69 2151.69 1079.37 2255.68 1079.75 2256.7L1080 2257.45L1080.19 2258.21C1080.34 2258.74 1093.18 2311.5 1114.06 2348.32C1132.25 2380.36 1159.02 2399.19 1159.3 2399.36L1159.74 2399.66L1160.17 2400.02C1160.36 2400.16 1178.58 2414.87 1206.55 2430.2C1238.75 2447.83 1281.91 2466.75 1283.74 2467.51C1286.78 2468.7 1381.91 2505.12 1507.31 2521.67C1638.28 2538.96 1804.12 2536.14 1805.79 2536.11Z" fill="url(#paint2_radial_5_86)" stroke="#6D0115" stroke-width="16.9492"/>
<g id="Stripes" class="stripesGrup">
<path id="stripe" class="stripes" d="M1237.45 2435.36C1231.77 2432.75 1228.68 2431.25 1228.68 2431.25C1228.36 2431.11 1226.74 2430.41 1224.12 2429.2L1223.17 2423.57C1200.71 2299.74 1166.43 2073.49 1155.22 1797.61C1141.36 1473.19 1141.89 1075.58 1143.2 882.983V869.051C1146.99 867.78 1150.92 866.492 1154.97 865.195L1155.03 879.153C1153.69 1070.1 1153.06 1470.73 1167.01 1797.13C1178.41 2077.82 1213.73 2306.9 1236.06 2428.6L1237.45 2435.36Z" fill="#6D0115"/>
<path id="stripes" class="stripes" d="M1274.53 2451.24C1269.98 2449.4 1265.71 2447.63 1261.75 2445.97L1260.64 2437.28C1244.29 2320.66 1215.35 2082.92 1201.59 1778.79C1186.98 1455.48 1189.62 1049.1 1191.91 864.356L1191.93 853.975C1195.77 852.873 1199.7 851.771 1203.71 850.661L1203.74 862.119C1201.45 1045.59 1198.74 1453.84 1213.38 1778.28C1227.45 2089.29 1257.42 2330.68 1273.49 2443.81L1274.53 2451.24ZM1551.84 803.907C1554.81 1162.04 1563.36 2195.14 1565.86 2494.42L1566.09 2519.69C1562.26 2519.29 1558.34 2518.85 1554.37 2518.39L1554.08 2494.37C1551.58 2195.32 1543.03 1164.9 1540.06 805.475L1539.76 795C1543.73 794.661 1547.7 794.331 1551.67 794.025L1551.84 803.907ZM1705.37 799.254L1710.97 2502.93L1711.05 2526.83C1706.92 2526.88 1702.95 2526.92 1699.17 2526.93V2499.81C1697.98 2144.26 1694.57 1103.49 1693.56 795.381L1693.5 787.364L1705.03 787.229L1705.37 799.254ZM1764.32 800.814L1755.87 2502.96L1755.86 2526.01C1751.76 2526.12 1747.81 2526.21 1743.87 2526.3L1744.04 2507.6C1745.53 2205.25 1750.78 1146.5 1752.52 798.509L1752.24 787.271C1756.35 787.314 1760.44 787.356 1764.53 787.424L1764.32 800.814ZM1923.68 2496.84C1932.14 2356.77 1948.13 2059.83 1954.7 1723.83C1961.39 1381.39 1958.42 991.678 1956.34 808.653L1955.67 796.873C1960.45 797.297 1965.19 797.72 1969.91 798.161L1970.56 813.246C1972.6 998.297 1975.49 1384.42 1968.86 1724.09C1962.34 2057.3 1946.58 2352.14 1938.06 2493.86L1936.81 2514.11C1931.86 2514.7 1927.56 2515.27 1922.52 2515.81L1923.68 2496.84ZM2326.41 2358.01C2320.82 2365.58 2314.61 2372.68 2307.85 2379.22L2313.51 2349.17C2338.15 2221.51 2370.02 2024.03 2385.92 1792.15C2404.82 1516.49 2407.25 1139.57 2406.86 925.39L2407.11 904.873C2411.7 907.415 2416.36 910.11 2421.01 913.008L2421.04 940.356C2421.31 1157 2418.56 1523.37 2400.08 1793.11C2384.46 2020.75 2353.49 2215.4 2328.98 2343.7L2326.41 2358.01ZM2462.64 1895.58C2473.92 1806.88 2482.63 1717.88 2488.75 1628.68C2503.01 1418.45 2503.37 1180.29 2501.56 1028.71L2501.25 1003.42C2507 1016.38 2511.88 1029.72 2515.85 1043.33L2516.13 1066.84C2517.4 1218.6 2516.03 1435.93 2502.91 1629.62C2500.21 1669.4 2496.97 1709.13 2493.2 1748.82L2488.86 1791.42C2478.39 1844.04 2467.29 1896.53 2455.57 1948.88L2462.64 1895.58Z" fill="#6D0115"/>
<path id="stripesRight" d="M2276.24 2404.1C2271.75 2407.15 2266.38 2410.63 2260.32 2414.28L2264.63 2390.1C2288.25 2260.06 2325.02 2024.03 2339.47 1749.76C2355.32 1448.47 2355.38 1090.32 2354.05 906.966L2353.5 881.009C2357.54 882.432 2362.31 884.187 2367.59 886.297L2368.25 910.483C2369.55 1095.06 2369.4 1450.84 2353.62 1750.48C2339.57 2017.21 2304.44 2247.92 2280.72 2380.6L2276.23 2404.09L2276.24 2404.1ZM2102.29 2463.73C2113.46 2342.56 2133.94 2091.74 2143.78 1789.14C2154.82 1449.45 2154.86 1046.9 2154.05 852.449L2153.63 824.788C2158.55 825.805 2163.42 826.822 2168.19 827.856L2168.24 854.627C2169.05 1050.03 2168.96 1450.99 2157.95 1789.6C2148.18 2090.19 2127.91 2339.81 2116.68 2462.23L2115.24 2477.1C2110.56 2478.48 2105.87 2479.91 2100.66 2481.36L2102.29 2463.73ZM2053.35 2475.17C2065.61 2372.27 2085.7 2172.82 2094 1913.42C2106.08 1535.98 2104.59 1060 2103.02 839.729L2102.74 815.229C2107.43 816.025 2112.07 816.831 2116.64 817.67L2117.17 843.28C2118.75 1065.21 2120.17 1538.28 2108.13 1913.87C2099.96 2169.29 2080.37 2366.75 2068.01 2471.47L2065.72 2490.44C2061.02 2491.58 2055.98 2492.86 2051.02 2494L2053.35 2475.17ZM2013.65 2483.51C2023.25 2374.72 2039.8 2159.23 2047.58 1897.07C2058.45 1530.69 2055.64 1066.75 2053.03 824.864L2052.75 807.576C2057.58 808.22 2062.35 808.898 2067.04 809.585L2067.3 832.712C2069.87 1076.83 2072.5 1534.87 2061.75 1897.47C2054.09 2155.58 2037.93 2368.53 2028.28 2479.22L2026.52 2499.3C2021.64 2500.31 2017.04 2501.25 2011.99 2502.21L2013.65 2483.52V2483.51ZM1967.6 2492.76C1975.74 2365.68 1991.11 2100.16 1997.82 1815.36C2006.76 1436.76 2007.19 1014.44 2006.8 816.746L2006.4 801.864C2011.19 802.407 2015.96 802.941 2020.7 803.492L2020.99 820.271C2021.37 1019.5 2020.9 1439.19 2012.01 1815.68C2005.36 2097.08 1990.3 2359.69 1982.08 2488.74L1980.86 2507.78C1975.8 2508.63 1971.72 2509.34 1966.51 2510.13L1967.6 2492.75V2492.76ZM1918.89 810.127C1918.28 1012.45 1916.25 1471.45 1909.7 1862.97C1906.08 2073.29 1900.01 2283.56 1891.51 2493.74L1890.42 2518.81C1886.42 2519.14 1882.4 2519.48 1878.4 2519.81L1879.57 2497.53C1884.53 2376.02 1893.3 2136.85 1897.9 1862.77C1904.51 1469.33 1906.53 1007.71 1907.13 807.034L1907.21 793.144C1911.18 793.424 1915.16 793.687 1919.11 793.975L1918.89 810.127ZM1860.57 800.814C1862.21 979.373 1864.65 1328.81 1862.47 1658.1C1860.1 2014.56 1852.39 2354.9 1848.73 2501.44L1848.29 2521.95C1844.27 2522.2 1840.27 2522.46 1836.28 2522.68L1836.82 2505.28C1840.47 2361.13 1848.29 2017.79 1850.67 1658C1852.85 1330.64 1850.45 983.322 1848.8 803.907L1848.69 789.856C1852.62 790.034 1856.55 790.212 1860.47 790.407L1860.57 800.814ZM1814.25 800.034C1816.67 1004.82 1820.04 1371.36 1818.41 1717.03C1816.88 2038.64 1809.99 2346.67 1805.85 2507.6L1805.49 2524.25L1793.6 2524.76L1794.09 2505.27C1798.25 2343.82 1805.06 2037.14 1806.58 1716.98C1808.23 1373.03 1804.91 1008.44 1802.47 803.136L1802.19 788.187L1814.08 788.526L1814.25 800.034ZM1397.2 2491.76C1393.09 2490.75 1389.02 2489.69 1384.97 2488.6L1384.26 2480.94C1374.35 2374.02 1354.42 2133.55 1346.18 1851.28C1335.64 1491.2 1339.14 1041.17 1341.73 829.246L1341.64 819.966C1345.58 819.288 1349.53 818.61 1353.53 817.949L1353.56 827.348C1350.98 1038.29 1347.42 1489.91 1357.97 1850.96C1366.33 2136.86 1386.69 2379.81 1396.43 2484.26L1397.2 2491.76ZM1317.22 2467.46C1312.97 2465.93 1308.8 2464.43 1304.75 2462.94L1303.79 2454.09C1285.74 2303.58 1250.85 1978.45 1239.79 1633.52C1230.42 1341.69 1238.52 1015.97 1243.97 852.178L1244.18 840.17C1248.09 839.22 1252.06 838.263 1256.08 837.322L1255.92 847.67C1250.48 1009.66 1242.14 1338.69 1251.58 1633.17C1262.8 1982.97 1298.56 2312.38 1316.31 2459.5L1317.22 2467.46ZM981.322 1867.55C966.915 1797.38 958.491 1746.13 958.339 1745.23L956.313 1714.49C948.008 1609.49 940.534 1491.86 938.796 1391.57C936.737 1272.97 937.61 1154.4 938.974 1065.71L938.483 1054.41C942.033 1040.4 946.425 1026.61 951.635 1013.13L950.618 1076.18C949.347 1163.55 948.618 1277.45 950.618 1391.39C952.813 1518.28 964.212 1673 974.873 1794.63L981.322 1867.55ZM1083.92 2242.02C1075.74 2218.03 1066.37 2189.75 1056.66 2158.86L1049.47 2117.36C1031.08 2008.63 1014.75 1893.13 1010.14 1804.42C986.076 1509.5 984.856 1169.08 986.373 987.864L986.669 954.525C990.407 950.432 994.279 946.559 998.22 942.941L998.288 974.475C996.601 1151.64 997.271 1501.54 1021.91 1803.64C1027.29 1907.08 1048.65 2047.08 1070.61 2170.19L1083.92 2242.02ZM1141.92 2304.06C1117.67 2184.52 1087.75 2008.19 1072.27 1806.6C1048.25 1493.76 1049.08 1125.64 1051.44 943.526L1051.72 905.907C1048.28 907.678 1044.17 909.898 1039.61 912.568L1039.63 943.924C1037.27 1126.46 1036.47 1494.55 1060.5 1807.48C1075.92 2008.3 1105.64 2184.13 1129.87 2304.03L1144.96 2375.18C1147.57 2378.12 1150.33 2381.03 1153.26 2383.82C1155.38 2385.84 1157.62 2387.85 1159.92 2389.81L1141.92 2304.06ZM1355.44 2473.64C1344.47 2375.03 1325.08 2175.31 1317.05 1934.28C1303.83 1537.72 1302.89 1042.75 1303.15 837.161L1303.04 827.136C1299.02 827.924 1295.03 828.746 1291.11 829.559L1291.35 838.288C1291.08 1044.66 1292.05 1538.68 1305.25 1934.67C1313.11 2170.35 1331.8 2366.62 1342.92 2467.76L1343.85 2476.47C1347.88 2477.78 1351.98 2479.07 1356.14 2480.32L1355.44 2473.63V2473.64Z" fill="#6D0115"/>
<path id="stripesCenter" class="stripesCenter" d="M1104.61 882.873C1100.25 884.542 1096.25 886.119 1092.58 887.593L1092.36 905.322C1088.41 1090.41 1083.22 1460.45 1097.92 1703.6C1118.79 2048.42 1162.01 2292.83 1183.36 2397.81L1185.36 2408.14C1189.89 2410.99 1195.04 2414.03 1199.3 2416.44L1196.64 2403.75C1176.05 2304.23 1131.12 2056.58 1109.72 1702.91C1094.92 1458.14 1100.31 1084.36 1104.26 901.042L1104.61 882.415M1404.34 810.144L1392.41 811.856L1392.6 821.771C1390.56 1014.53 1387.94 1395.77 1394.17 1729.54C1400.1 2046.92 1419.58 2336.32 1430.55 2479.62L1431.95 2499.54C1435.97 2500.36 1440 2501.16 1444.03 2501.93L1442.75 2484.35C1431.86 2343.26 1411.98 2050.64 1405.97 1729.32C1399.71 1395.17 1402.36 1013.41 1404.41 820.992L1404.34 810.144ZM1454.45 803.644C1450.42 804.127 1446.4 804.61 1442.4 805.11L1442.36 814.771C1439.31 971.949 1434.78 1297.14 1441.4 1620.94C1448.55 1989.16 1467.82 2336.8 1477.14 2489.51L1478.19 2507.98C1482.26 2508.64 1486.29 2509.29 1490.31 2509.9L1488.97 2489.7C1479.69 2337.58 1460.36 1989.47 1453.2 1620.7C1446.59 1296.42 1451.14 970.703 1454.19 814.009L1454.45 803.644ZM1502.73 798.398C1498.81 798.771 1494.86 799.187 1490.94 799.585L1490.86 809.364C1489.54 978.051 1487.72 1332.69 1491.77 1676.76C1495.7 2010.42 1505.77 2340.3 1510.82 2491.36L1511.53 2513.02C1515.53 2513.57 1519.5 2514.11 1523.4 2514.63L1522.62 2491.3C1517.58 2340.41 1507.49 2010.4 1503.57 1676.62C1499.49 1330.97 1501.36 974.644 1502.67 807.009L1502.73 798.398ZM1605.12 790.424C1601.01 790.661 1596.9 790.89 1592.8 791.144L1593.09 797.729C1595.14 1106.96 1602.14 2161.25 1604.39 2502.96L1604.58 2523.41C1608.76 2523.77 1612.73 2524.1 1616.46 2524.39L1616.2 2503.73C1613.93 2162.68 1606.94 1105.55 1604.89 796.949L1605.12 790.424ZM1654.81 788.212C1650.81 788.339 1646.8 788.492 1642.77 788.627L1643.07 800.025L1646.15 2498.25L1645.97 2526.41C1649.03 2526.6 1651.26 2526.71 1652.54 2526.78C1653.22 2526.78 1655.05 2526.84 1657.94 2526.85L1657.97 2497.48C1657.37 2179.94 1655.47 1127.08 1654.86 800.025L1654.81 788.212ZM2142.34 2447.66C2159.4 2304.14 2190.37 2007.48 2203.47 1651.77C2213.24 1386.96 2205.48 1031.71 2200.38 854.068L2199.47 834.949C2204.43 836.119 2209.25 837.297 2213.96 838.466L2214.67 858.127C2219.77 1037.36 2227.33 1389.29 2217.63 1652.28C2204.53 2007.55 2173.64 2304.03 2156.53 2448.25L2154.49 2464.69C2149.55 2466.38 2144.58 2468.02 2139.6 2469.6L2142.34 2447.66Z" fill="#6D0115"/>
<path id="stripesLeft" class="stripesLeft" d="M2201.52 2427.16C2215.31 2302.21 2239.53 2055.24 2254.1 1747.19C2268.12 1451.39 2267.39 1069.49 2265.69 867.017L2265.4 852.288C2260.83 850.966 2256.07 849.619 2251.1 848.237L2251.53 865.703C2253.23 1067.64 2253.98 1450.36 2239.97 1746.53C2225.21 2058.31 2200.59 2307.41 2186.91 2430.52L2184.28 2452.84C2188.52 2450.9 2193.53 2448.6 2199 2446.05L2201.52 2427.16ZM2244.92 2399.75C2261.62 2287.92 2284.33 2105.06 2297.24 1871.49C2316.41 1524.07 2319.87 1080.86 2320.42 882.703L2320.14 869.551C2316.14 868.153 2311.47 866.585 2306.12 864.805L2306.28 878.11C2305.77 1073.79 2302.41 1520.91 2283.09 1870.71C2269.69 2113.79 2245.61 2301.73 2228.81 2411.58L2225.54 2433.17C2230.74 2430.58 2235.9 2427.92 2241.03 2425.2L2244.92 2399.75ZM2368.88 2254.81C2368.88 2254.81 2381.59 2219.78 2397.28 2169.67L2403.23 2130.73C2422.55 2001.49 2442.94 1840.31 2456.45 1665.64C2474.44 1433.14 2470.5 1149.93 2465.51 979.458L2464.41 947.28C2459.71 942.464 2454.77 937.893 2449.6 933.585L2450.75 959.771C2455.97 1127.05 2460.98 1423.29 2442.3 1664.59C2426.63 1867.42 2401.64 2052.01 2379.86 2189.32L2368.88 2254.81Z" fill="#6D0115"/>

</g>
<g id="Group_2">
<g id="Group_3">
<path id="lettrs" class="lettrs" d="M1368.37 1746.53V1623.85H1263.15L1263.54 1315.03H1400.92L1400.18 1191.03H1114.59L1140.41 2140.11H1265.9L1263.15 1746.55L1368.37 1746.53ZM1449.79 1191.03L1465.66 2140.1H1595.24L1597.86 1191.03H1449.79ZM2282.05 2140.1L2308.66 1310.59H2410.19L2409.41 1191.03H2057.26V1310.74H2159.62L2156.67 2140.1H2282.05ZM1793.3 1630.27L1794.72 1307.9H1867.07C1899.86 1379.69 1920.94 1474.64 1937.47 1630.27H1793.3ZM1677.68 2140.08H1797.64L1798.98 1747.63H1942.72C1954.03 1816.89 1956.79 2030.73 1957.47 2140.08H2073.83C2084.81 1655.55 2050.7 1381.67 1956.47 1191.02H1666.7L1677.68 2140.08Z" fill="#1A1A1A"/>
</g>
<g id="Group_4">
<path id="F" class="lettrsF" d="M1383.73 1606.85H1278.24L1278.63 1298.03H1416.36L1415.61 1174.02H1129.31L1155.2 2123.1H1281L1278.24 1729.53H1383.73V1606.85Z" fill="url(#paint3_radial_5_86)"/>
<path id="I" class="lettrsI" d="M1613.8 1174.02H1465.35L1481.26 2123.1H1611.17L1613.8 1174.02Z" fill="url(#paint4_radial_5_86)"/>
<path id="T" class="lettrsT" d="M2174.01 2123.1H2299.7L2326.38 1293.59H2428.15L2427.37 1174.02H2074.34V1293.73H2176.96L2174.01 2123.1Z" fill="url(#paint5_radial_5_86)"/>
<path id="A" class="lettrsA" d="M1809.72 1613.27L1811.13 1290.89H1883.67C1916.55 1362.69 1937.68 1457.64 1954.24 1613.27H1809.72ZM1693.81 2123.08H1814.09L1815.43 1730.63H1959.53C1970.86 1799.9 1973.63 2013.72 1974.32 2123.08H2090.97C2101.97 1638.55 2067.77 1364.67 1973.29 1174.02H1682.81L1693.81 2123.08Z" fill="url(#paint6_radial_5_86)"/>
</g>
</g>
<path id="star" class="star" d="M2678.5 894.5L2744.5 703L2709 902.5L2903.5 822.5L2721.5 928.5L2903.5 1021.5L2721.5 962L2753.5 1100L2678.5 962L2600.5 1150.5L2678.5 928.5L2501 1000.5L2654 916L2487 894.5H2678.5Z" fill="white"/>
</g>
</g>
<defs>
<linearGradient id="paint0_linear_5_86" x1="539.699" y1="2755.24" x2="1716.45" y2="1630.36" gradientUnits="userSpaceOnUse">
<stop stop-color="#8C8C8C"/>
<stop offset="0.5" stop-color="#464646"/>
<stop offset="0.75" stop-color="white"/>
<stop offset="1" stop-color="white"/>
</linearGradient>
<linearGradient id="paint1_linear_5_86" x1="539.699" y1="2755.24" x2="1716.45" y2="1630.36" gradientUnits="userSpaceOnUse">
<stop stop-color="#8C8C8C"/>
<stop offset="0.5" stop-color="#464646"/>
<stop offset="0.75" stop-color="white"/>
<stop offset="1" stop-color="white"/>
</linearGradient>
<radialGradient id="paint2_radial_5_86" cx="0" cy="0" r="1" gradientUnits="userSpaceOnUse" gradientTransform="translate(1729.01 1656.96) scale(830.508 887.731)">
<stop stop-color="#E60A47"/>
<stop offset="1" stop-color="#7C0626"/>
</radialGradient>
<radialGradient id="paint3_radial_5_86" cx="0" cy="0" r="1" gradientUnits="userSpaceOnUse" gradientTransform="translate(1778.81 1648.6) scale(904.836 785.1)">
<stop stop-color="#D3D1D2"/>
<stop offset="0.5" stop-color="#C9C7C8"/>
<stop offset="1" stop-color="#8D8B8C"/>
</radialGradient>
<radialGradient id="paint4_radial_5_86" cx="0" cy="0" r="1" gradientUnits="userSpaceOnUse" gradientTransform="translate(1778.81 1648.6) scale(904.836 785.1)">
<stop stop-color="#D3D1D2"/>
<stop offset="0.5" stop-color="#C9C7C8"/>
<stop offset="1" stop-color="#8D8B8C"/>
</radialGradient>
<radialGradient id="paint5_radial_5_86" cx="0" cy="0" r="1" gradientUnits="userSpaceOnUse" gradientTransform="translate(1778.81 1648.6) scale(904.836 785.1)">
<stop stop-color="#D3D1D2"/>
<stop offset="0.5" stop-color="#C9C7C8"/>
<stop offset="1" stop-color="#8D8B8C"/>
</radialGradient>
<radialGradient id="paint6_radial_5_86" cx="0" cy="0" r="1" gradientUnits="userSpaceOnUse" gradientTransform="translate(1778.81 1648.59) scale(904.803 785.071)">
<stop stop-color="#D3D1D2"/>
<stop offset="0.5" stop-color="#C9C7C8"/>
<stop offset="1" stop-color="#8D8B8C"/>
</radialGradient>
</defs>
</svg>
